<svg xmlns="http://www.w3.org/2000/svg" xmlns:xlink="http://www.w3.org/1999/xlink" width="272" zoomAndPan="magnify" viewBox="0 0 204 98.999996" height="132" preserveAspectRatio="xMidYMid meet" version="1.2"><defs><clipPath id="105ae7b08e"><path d="M 125.90625 8.742188 L 203.15625 8.742188 L 203.15625 56.742188 L 125.90625 56.742188 Z M 125.90625 8.742188 "/></clipPath><clipPath id="195aaa11ba"><path d="M 11 61.730469 L 199.8125 61.730469 L 199.8125 98.480469 L 11 98.480469 Z M 11 61.730469 "/></clipPath></defs><g id="e5499c5cf2"><g clip-rule="nonzero" clip-path="url(#105ae7b08e)"><path style=" stroke:none;fill-rule:nonzero;fill:#001a7a;fill-opacity:1;" d="M 198.652344 56.570312 C 197.769531 56.570312 197.019531 55.878906 196.949219 54.996094 C 196.234375 46.203125 190.714844 41.84375 186.207031 39.734375 C 185.601562 39.453125 185.210938 38.835938 185.21875 38.167969 C 185.226562 37.5 185.625 36.890625 186.234375 36.617188 C 190.84375 34.566406 193.820312 29.984375 193.820312 24.949219 C 193.820312 17.902344 188.085938 12.167969 181.039062 12.167969 C 173.992188 12.167969 168.257812 17.902344 168.257812 24.949219 C 168.257812 29.625 170.8125 33.925781 174.921875 36.171875 C 175.425781 36.449219 175.757812 36.957031 175.804688 37.53125 C 175.855469 38.105469 175.613281 38.660156 175.164062 39.019531 L 165.3125 46.808594 C 165.132812 46.960938 165.019531 47.226562 165.019531 47.5 L 165.019531 54.648438 L 165.101562 54.648438 C 165.175781 54.648438 165.246094 54.6875 165.285156 54.757812 C 165.320312 54.824219 165.316406 54.90625 165.277344 54.972656 L 164.742188 55.792969 C 164.707031 55.84375 164.667969 55.871094 164.640625 55.890625 C 164.527344 56.035156 164.390625 56.164062 164.222656 56.269531 C 164.207031 56.28125 164.191406 56.292969 164.175781 56.300781 C 164.144531 56.328125 164.101562 56.359375 164.046875 56.386719 C 163.796875 56.507812 163.550781 56.570312 163.304688 56.570312 C 163.304688 56.570312 163.304688 56.570312 163.300781 56.570312 C 163.121094 56.570312 162.925781 56.53125 162.714844 56.453125 C 162.65625 56.429688 162.605469 56.40625 162.554688 56.378906 C 162.527344 56.363281 162.511719 56.359375 162.496094 56.351562 C 162.460938 56.339844 162.417969 56.320312 162.371094 56.289062 C 162.324219 56.257812 162.292969 56.222656 162.269531 56.195312 C 162.261719 56.191406 162.257812 56.183594 162.25 56.175781 C 162.152344 56.097656 162.066406 56.015625 161.992188 55.921875 C 161.925781 55.839844 161.871094 55.757812 161.820312 55.667969 C 161.769531 55.574219 161.726562 55.472656 161.691406 55.359375 C 161.65625 55.253906 161.636719 55.148438 161.625 55.035156 C 161.621094 55.023438 161.617188 55.011719 161.617188 55 C 161.605469 54.964844 161.589844 54.917969 161.589844 54.855469 L 161.589844 47.5 C 161.589844 46.203125 162.160156 44.984375 163.148438 44.152344 L 168.976562 39.546875 L 154.777344 39.546875 C 154.65625 39.546875 154.539062 39.53125 154.421875 39.507812 C 153.710938 39.355469 153.167969 38.773438 153.074219 38.058594 C 152.976562 37.339844 153.339844 36.636719 153.976562 36.308594 C 158.257812 34.101562 160.914062 29.746094 160.914062 24.949219 C 160.914062 17.902344 155.179688 12.167969 148.132812 12.167969 C 141.085938 12.167969 135.351562 17.902344 135.351562 24.949219 C 135.351562 29.957031 138.308594 34.527344 142.886719 36.59375 C 143.492188 36.867188 143.890625 37.476562 143.894531 38.144531 C 143.898438 38.8125 143.507812 39.425781 142.902344 39.707031 C 138.371094 41.8125 132.820312 46.175781 132.105469 54.996094 C 132.03125 55.941406 131.21875 56.628906 130.261719 56.5625 C 129.804688 56.527344 129.390625 56.316406 129.09375 55.964844 C 128.796875 55.617188 128.65625 55.175781 128.691406 54.71875 C 128.875 52.433594 129.359375 50.308594 130.167969 48.230469 C 127.652344 47.382812 125.914062 44.996094 125.914062 42.351562 C 125.914062 38.914062 128.710938 36.121094 132.148438 36.121094 L 136.449219 36.121094 C 133.566406 33.105469 131.925781 29.0625 131.925781 24.949219 C 131.925781 16.011719 139.195312 8.742188 148.132812 8.742188 C 157.070312 8.742188 164.34375 16.011719 164.34375 24.949219 C 164.34375 29.15625 162.757812 33.105469 159.875 36.121094 L 169.320312 36.121094 C 166.421875 33.085938 164.832031 29.136719 164.832031 24.949219 C 164.832031 16.011719 172.101562 8.742188 181.039062 8.742188 C 189.976562 8.742188 197.25 16.011719 197.25 24.949219 C 197.25 29.128906 195.648438 33.078125 192.730469 36.121094 L 196.898438 36.121094 C 200.335938 36.121094 203.132812 38.914062 203.132812 42.351562 C 203.132812 45.035156 201.433594 47.371094 198.882812 48.230469 C 199.695312 50.308594 200.175781 52.433594 200.363281 54.71875 C 200.398438 55.175781 200.257812 55.617188 199.960938 55.964844 C 199.664062 56.316406 199.25 56.527344 198.792969 56.5625 C 198.746094 56.566406 198.699219 56.570312 198.652344 56.570312 Z M 181.039062 11.75 C 188.316406 11.75 194.238281 17.671875 194.238281 24.949219 C 194.238281 30.148438 191.164062 34.878906 186.40625 37.003906 C 185.945312 37.207031 185.644531 37.667969 185.636719 38.171875 C 185.632812 38.675781 185.925781 39.140625 186.382812 39.355469 C 190.992188 41.511719 196.636719 45.96875 197.367188 54.960938 C 197.421875 55.628906 197.984375 56.148438 198.652344 56.148438 C 198.6875 56.148438 198.722656 56.148438 198.761719 56.144531 C 199.105469 56.117188 199.417969 55.957031 199.640625 55.695312 C 199.863281 55.433594 199.972656 55.097656 199.941406 54.753906 C 199.753906 52.433594 199.253906 50.285156 198.410156 48.175781 C 198.386719 48.121094 198.390625 48.058594 198.417969 48.007812 C 198.441406 47.953125 198.488281 47.914062 198.542969 47.898438 C 201.035156 47.152344 202.710938 44.925781 202.710938 42.351562 C 202.710938 39.148438 200.101562 36.539062 196.898438 36.539062 L 192.226562 36.539062 C 192.140625 36.539062 192.066406 36.488281 192.03125 36.410156 C 192 36.332031 192.019531 36.242188 192.078125 36.179688 C 195.140625 33.171875 196.828125 29.183594 196.828125 24.949219 C 196.828125 16.246094 189.746094 9.164062 181.039062 9.164062 C 172.332031 9.164062 165.25 16.246094 165.25 24.949219 C 165.25 29.191406 166.925781 33.183594 169.96875 36.179688 C 170.03125 36.242188 170.046875 36.332031 170.015625 36.410156 C 169.984375 36.488281 169.90625 36.539062 169.820312 36.539062 L 159.371094 36.539062 C 159.289062 36.539062 159.210938 36.488281 159.179688 36.410156 C 159.144531 36.332031 159.164062 36.242188 159.226562 36.179688 C 162.253906 33.203125 163.921875 29.214844 163.921875 24.949219 C 163.921875 16.246094 156.839844 9.164062 148.132812 9.164062 C 139.425781 9.164062 132.34375 16.246094 132.34375 24.949219 C 132.34375 29.117188 134.074219 33.210938 137.09375 36.179688 C 137.15625 36.242188 137.175781 36.332031 137.140625 36.410156 C 137.109375 36.488281 137.03125 36.539062 136.949219 36.539062 L 132.144531 36.539062 C 128.941406 36.539062 126.332031 39.148438 126.332031 42.351562 C 126.332031 44.886719 128.046875 47.167969 130.503906 47.898438 C 130.5625 47.914062 130.609375 47.957031 130.632812 48.007812 C 130.660156 48.0625 130.664062 48.121094 130.640625 48.175781 C 129.796875 50.285156 129.296875 52.433594 129.109375 54.753906 C 129.082031 55.097656 129.1875 55.433594 129.414062 55.695312 C 129.636719 55.957031 129.949219 56.117188 130.292969 56.144531 C 131.019531 56.195312 131.628906 55.675781 131.6875 54.960938 C 132.417969 45.9375 138.09375 41.480469 142.726562 39.328125 C 143.183594 39.117188 143.476562 38.652344 143.472656 38.148438 C 143.46875 37.644531 143.171875 37.183594 142.710938 36.976562 C 137.984375 34.84375 134.933594 30.121094 134.933594 24.949219 C 134.933594 17.671875 140.855469 11.75 148.132812 11.75 C 155.410156 11.75 161.332031 17.671875 161.332031 24.949219 C 161.332031 29.90625 158.585938 34.402344 154.167969 36.679688 C 153.6875 36.929688 153.414062 37.460938 153.488281 38.003906 C 153.558594 38.542969 153.96875 38.984375 154.507812 39.097656 C 154.59375 39.117188 154.6875 39.125 154.777344 39.125 L 169.578125 39.125 C 169.667969 39.125 169.746094 39.183594 169.773438 39.269531 C 169.804688 39.351562 169.777344 39.445312 169.707031 39.5 L 163.414062 44.480469 C 162.523438 45.226562 162.011719 46.328125 162.011719 47.5 L 162.011719 54.855469 C 162.011719 54.867188 162.015625 54.875 162.019531 54.886719 C 162.027344 54.921875 162.035156 54.953125 162.039062 54.988281 C 162.050781 55.078125 162.066406 55.15625 162.089844 55.234375 C 162.117188 55.320312 162.148438 55.394531 162.1875 55.46875 C 162.226562 55.535156 162.265625 55.597656 162.316406 55.660156 C 162.375 55.730469 162.433594 55.789062 162.511719 55.851562 C 162.539062 55.871094 162.5625 55.898438 162.585938 55.921875 C 162.589844 55.929688 162.597656 55.9375 162.601562 55.941406 C 162.617188 55.953125 162.632812 55.957031 162.652344 55.964844 C 162.679688 55.976562 162.703125 55.984375 162.730469 56 C 162.78125 56.023438 162.816406 56.042969 162.859375 56.058594 C 163.023438 56.121094 163.164062 56.148438 163.292969 56.152344 C 163.300781 56.148438 163.304688 56.148438 163.3125 56.152344 C 163.492188 56.148438 163.671875 56.101562 163.863281 56.011719 C 163.886719 56 163.90625 55.984375 163.925781 55.96875 C 163.945312 55.953125 163.96875 55.933594 163.992188 55.921875 C 164.121094 55.835938 164.222656 55.742188 164.3125 55.628906 C 164.339844 55.589844 164.375 55.566406 164.394531 55.550781 C 164.394531 55.550781 164.398438 55.550781 164.398438 55.550781 L 164.722656 55.050781 C 164.648438 55.015625 164.597656 54.941406 164.597656 54.855469 L 164.597656 47.5 C 164.597656 47.101562 164.765625 46.722656 165.046875 46.484375 L 174.902344 38.691406 C 175.242188 38.417969 175.425781 38 175.386719 37.566406 C 175.351562 37.132812 175.101562 36.75 174.71875 36.539062 C 170.476562 34.222656 167.839844 29.78125 167.839844 24.949219 C 167.839844 17.671875 173.761719 11.75 181.039062 11.75 Z M 131.828125 45.515625 C 131.820312 45.515625 131.8125 45.511719 131.804688 45.511719 C 130.160156 45.332031 128.921875 43.972656 128.921875 42.351562 C 128.921875 40.574219 130.367188 39.125 132.144531 39.125 L 137.242188 39.125 C 137.332031 39.125 137.414062 39.183594 137.441406 39.269531 C 137.46875 39.355469 137.4375 39.453125 137.367188 39.503906 C 135.191406 41.113281 133.390625 43.097656 132.007812 45.410156 C 131.972656 45.476562 131.902344 45.515625 131.828125 45.515625 Z M 132.144531 39.546875 C 130.597656 39.546875 129.339844 40.804688 129.339844 42.351562 C 129.339844 43.714844 130.355469 44.863281 131.71875 45.078125 C 133.011719 42.945312 134.660156 41.085938 136.621094 39.546875 Z M 197.222656 45.511719 C 197.148438 45.511719 197.082031 45.472656 197.042969 45.410156 C 195.660156 43.097656 193.859375 41.109375 191.691406 39.503906 C 191.617188 39.453125 191.585938 39.355469 191.617188 39.269531 C 191.644531 39.183594 191.722656 39.125 191.816406 39.125 L 196.898438 39.125 C 198.675781 39.125 200.121094 40.574219 200.121094 42.351562 C 200.121094 43.96875 198.886719 45.324219 197.246094 45.511719 C 197.238281 45.511719 197.230469 45.511719 197.222656 45.511719 Z M 192.433594 39.546875 C 194.390625 41.085938 196.035156 42.941406 197.332031 45.078125 C 198.691406 44.859375 199.703125 43.710938 199.703125 42.351562 C 199.703125 40.804688 198.445312 39.546875 196.898438 39.546875 Z M 192.433594 39.546875 "/></g><path style=" stroke:none;fill-rule:nonzero;fill:#001a7a;fill-opacity:1;" d="M 181.039062 33.648438 C 178.742188 33.648438 176.511719 32.832031 174.753906 31.347656 C 174.472656 31.109375 174.300781 30.78125 174.273438 30.414062 C 174.242188 30.054688 174.355469 29.699219 174.589844 29.421875 C 175.074219 28.847656 175.9375 28.773438 176.511719 29.257812 C 179.050781 31.398438 183.027344 31.398438 185.566406 29.257812 C 186.140625 28.773438 187.003906 28.847656 187.488281 29.421875 C 187.726562 29.699219 187.835938 30.054688 187.808594 30.417969 C 187.777344 30.78125 187.605469 31.109375 187.328125 31.347656 C 185.566406 32.832031 183.335938 33.648438 181.039062 33.648438 Z M 175.636719 29.359375 C 175.367188 29.359375 175.097656 29.472656 174.910156 29.691406 C 174.746094 29.886719 174.667969 30.128906 174.691406 30.382812 C 174.710938 30.632812 174.828125 30.863281 175.023438 31.027344 C 176.707031 32.445312 178.84375 33.230469 181.039062 33.230469 C 183.238281 33.230469 185.375 32.445312 187.054688 31.027344 C 187.25 30.863281 187.367188 30.632812 187.390625 30.382812 C 187.410156 30.128906 187.332031 29.886719 187.167969 29.691406 C 186.832031 29.292969 186.234375 29.242188 185.835938 29.578125 C 183.148438 31.847656 178.933594 31.847656 176.242188 29.578125 C 176.066406 29.429688 175.851562 29.359375 175.636719 29.359375 Z M 175.636719 29.359375 "/><path style=" stroke:none;fill-rule:nonzero;fill:#001a7a;fill-opacity:1;" d="M 148.132812 33.648438 C 145.835938 33.648438 143.605469 32.832031 141.847656 31.347656 C 141.566406 31.109375 141.394531 30.78125 141.367188 30.414062 C 141.335938 30.054688 141.449219 29.699219 141.683594 29.421875 C 142.171875 28.847656 143.035156 28.773438 143.605469 29.257812 C 146.144531 31.398438 150.121094 31.398438 152.660156 29.257812 C 153.234375 28.773438 154.097656 28.847656 154.582031 29.421875 C 154.816406 29.699219 154.929688 30.054688 154.902344 30.417969 C 154.871094 30.78125 154.699219 31.109375 154.421875 31.347656 C 152.660156 32.832031 150.429688 33.648438 148.132812 33.648438 Z M 142.730469 29.355469 C 142.460938 29.355469 142.191406 29.472656 142.003906 29.691406 C 141.839844 29.886719 141.761719 30.128906 141.785156 30.382812 C 141.804688 30.632812 141.921875 30.863281 142.117188 31.027344 C 143.800781 32.445312 145.9375 33.230469 148.132812 33.230469 C 150.332031 33.230469 152.464844 32.445312 154.148438 31.027344 C 154.34375 30.863281 154.460938 30.632812 154.484375 30.382812 C 154.503906 30.128906 154.425781 29.886719 154.261719 29.691406 C 153.925781 29.292969 153.328125 29.242188 152.929688 29.578125 C 150.238281 31.847656 146.027344 31.847656 143.335938 29.578125 C 143.160156 29.429688 142.945312 29.355469 142.730469 29.355469 Z M 142.730469 29.355469 "/><g clip-rule="nonzero" clip-path="url(#195aaa11ba)"><path style=" stroke:none;fill-rule:nonzero;fill:#e4b52c;fill-opacity:1;" d="M 32.273438 76.949219 C 32.589844 76.976562 32.898438 76.875 33.140625 76.671875 C 33.382812 76.464844 33.527344 76.175781 33.554688 75.859375 C 33.578125 75.542969 33.480469 75.234375 33.273438 74.992188 C 33.070312 74.75 32.78125 74.605469 32.464844 74.578125 C 32.429688 74.578125 32.398438 74.574219 32.367188 74.574219 C 32.085938 74.574219 31.816406 74.671875 31.597656 74.859375 C 31.097656 75.28125 31.039062 76.035156 31.464844 76.535156 C 31.667969 76.777344 31.957031 76.921875 32.273438 76.949219 Z M 45.339844 64.722656 C 45.132812 64.480469 44.847656 64.335938 44.527344 64.308594 C 44.496094 64.308594 44.464844 64.304688 44.429688 64.304688 C 44.148438 64.304688 43.878906 64.40625 43.664062 64.589844 C 43.421875 64.796875 43.273438 65.082031 43.246094 65.398438 C 43.222656 65.714844 43.320312 66.023438 43.527344 66.265625 C 43.734375 66.507812 44.019531 66.65625 44.339844 66.679688 C 44.652344 66.707031 44.960938 66.609375 45.203125 66.402344 C 45.703125 65.976562 45.765625 65.222656 45.339844 64.722656 Z M 58.386719 69.785156 C 64.066406 76.460938 63.257812 86.515625 56.585938 92.195312 C 53.597656 94.738281 49.9375 95.980469 46.292969 95.980469 C 41.789062 95.980469 37.316406 94.082031 34.175781 90.394531 C 31.453125 87.195312 30.125 83.070312 30.433594 78.914062 C 30.105469 78.710938 29.808594 78.460938 29.550781 78.160156 C 28.230469 76.609375 28.417969 74.269531 29.972656 72.949219 C 31.523438 71.625 33.863281 71.8125 35.183594 73.367188 C 35.824219 74.121094 36.132812 75.074219 36.054688 76.058594 C 35.976562 77.046875 35.519531 77.941406 34.765625 78.582031 C 34.230469 79.035156 33.589844 79.320312 32.910156 79.421875 C 32.738281 82.8125 33.863281 86.15625 36.085938 88.769531 C 40.871094 94.390625 49.335938 95.070312 54.957031 90.285156 C 60.582031 85.503906 61.261719 77.035156 56.476562 71.414062 C 54.28125 68.835938 51.214844 67.203125 47.890625 66.800781 C 47.679688 67.367188 47.324219 67.890625 46.832031 68.3125 C 46.15625 68.886719 45.316406 69.191406 44.441406 69.191406 C 44.339844 69.191406 44.238281 69.1875 44.136719 69.179688 C 43.152344 69.101562 42.257812 68.644531 41.617188 67.890625 C 40.976562 67.140625 40.667969 66.183594 40.746094 65.199219 C 40.828125 64.214844 41.285156 63.320312 42.035156 62.679688 C 42.789062 62.039062 43.75 61.730469 44.730469 61.808594 C 45.714844 61.890625 46.609375 62.347656 47.25 63.097656 C 47.554688 63.457031 47.777344 63.863281 47.921875 64.28125 C 51.972656 64.703125 55.722656 66.65625 58.386719 69.785156 Z M 175.773438 88.75 C 175.769531 88.429688 175.636719 88.136719 175.40625 87.914062 C 175.1875 87.703125 174.894531 87.585938 174.589844 87.585938 C 174.578125 87.585938 174.570312 87.585938 174.558594 87.585938 C 173.90625 87.601562 173.382812 88.148438 173.398438 88.804688 C 173.40625 89.121094 173.535156 89.417969 173.765625 89.636719 C 173.992188 89.855469 174.296875 89.976562 174.613281 89.964844 C 175.269531 89.949219 175.789062 89.402344 175.773438 88.75 Z M 173.03125 72.964844 C 173.039062 73.28125 173.167969 73.574219 173.398438 73.796875 C 173.628906 74.015625 173.929688 74.136719 174.246094 74.125 C 174.566406 74.117188 174.863281 73.984375 175.082031 73.757812 C 175.300781 73.527344 175.417969 73.226562 175.410156 72.90625 C 175.394531 72.261719 174.863281 71.746094 174.21875 71.746094 C 174.210938 71.746094 174.203125 71.746094 174.195312 71.746094 C 173.535156 71.761719 173.015625 72.304688 173.03125 72.964844 Z M 177.140625 86.101562 C 177.855469 86.78125 178.261719 87.703125 178.285156 88.691406 C 178.328125 90.726562 176.710938 92.425781 174.671875 92.472656 C 174.644531 92.472656 174.613281 92.472656 174.585938 92.472656 C 174.148438 92.472656 173.726562 92.394531 173.324219 92.25 C 170.449219 95.128906 166.566406 96.804688 162.460938 96.902344 C 162.335938 96.90625 162.210938 96.90625 162.085938 96.90625 C 153.488281 96.90625 146.398438 90.015625 146.199219 81.375 C 145.996094 72.609375 152.960938 65.316406 161.722656 65.113281 C 165.925781 65.023438 169.964844 66.589844 172.996094 69.449219 C 173.355469 69.324219 173.734375 69.25 174.132812 69.238281 C 176.164062 69.195312 177.871094 70.8125 177.917969 72.851562 C 177.941406 73.835938 177.578125 74.773438 176.894531 75.488281 C 176.214844 76.203125 175.292969 76.609375 174.308594 76.632812 C 174.277344 76.632812 174.246094 76.632812 174.21875 76.632812 C 173.261719 76.632812 172.359375 76.273438 171.667969 75.609375 C 170.953125 74.929688 170.546875 74.007812 170.523438 73.019531 C 170.507812 72.304688 170.699219 71.628906 171.042969 71.050781 C 168.515625 68.78125 165.210938 67.539062 161.785156 67.621094 C 154.402344 67.792969 148.535156 73.9375 148.707031 81.316406 C 148.875 88.59375 154.847656 94.398438 162.089844 94.398438 C 162.191406 94.398438 162.296875 94.394531 162.402344 94.394531 C 165.785156 94.316406 168.984375 92.960938 171.390625 90.636719 C 171.078125 90.105469 170.90625 89.496094 170.890625 88.859375 C 170.84375 86.824219 172.460938 85.125 174.503906 85.078125 C 175.492188 85.054688 176.425781 85.417969 177.140625 86.101562 Z M 30.304688 94.71875 C 30.332031 94.402344 30.234375 94.09375 30.027344 93.851562 C 29.792969 93.574219 29.457031 93.433594 29.121094 93.433594 C 28.847656 93.433594 28.574219 93.527344 28.351562 93.71875 C 27.851562 94.140625 27.789062 94.894531 28.214844 95.394531 C 28.421875 95.636719 28.707031 95.785156 29.023438 95.808594 C 29.339844 95.832031 29.648438 95.734375 29.890625 95.53125 C 30.132812 95.320312 30.28125 95.035156 30.304688 94.71875 Z M 41.183594 83.164062 C 40.902344 83.164062 40.632812 83.261719 40.414062 83.449219 C 40.171875 83.652344 40.023438 83.941406 40 84.257812 C 39.972656 84.574219 40.074219 84.882812 40.28125 85.125 C 40.703125 85.625 41.457031 85.683594 41.957031 85.261719 L 41.957031 85.257812 C 42.457031 84.835938 42.515625 84.082031 42.089844 83.582031 C 41.886719 83.339844 41.597656 83.195312 41.28125 83.167969 C 41.25 83.164062 41.214844 83.164062 41.183594 83.164062 Z M 31.9375 92.226562 C 32.578125 92.976562 32.886719 93.9375 32.808594 94.921875 C 32.726562 95.902344 32.269531 96.800781 31.515625 97.4375 C 30.84375 98.011719 30.003906 98.320312 29.125 98.320312 C 29.027344 98.320312 28.925781 98.316406 28.824219 98.308594 C 27.839844 98.230469 26.945312 97.773438 26.304688 97.019531 C 25.996094 96.660156 25.777344 96.257812 25.628906 95.835938 C 21.582031 95.414062 17.832031 93.460938 15.167969 90.332031 C 9.484375 83.65625 10.292969 73.601562 16.96875 67.921875 C 23.644531 62.242188 33.699219 63.050781 39.378906 69.722656 C 42.101562 72.921875 43.429688 77.046875 43.121094 81.203125 C 43.449219 81.40625 43.746094 81.65625 44 81.957031 C 45.324219 83.511719 45.136719 85.847656 43.582031 87.167969 C 42.886719 87.761719 42.035156 88.050781 41.1875 88.050781 C 40.140625 88.050781 39.101562 87.609375 38.371094 86.75 C 37.730469 86 37.421875 85.042969 37.5 84.058594 C 37.578125 83.074219 38.035156 82.175781 38.789062 81.539062 C 39.324219 81.082031 39.964844 80.796875 40.644531 80.699219 C 40.8125 77.304688 39.691406 73.960938 37.46875 71.347656 C 32.683594 65.730469 24.21875 65.046875 18.59375 69.832031 C 12.972656 74.617188 12.292969 83.082031 17.078125 88.707031 C 19.269531 91.28125 22.339844 92.914062 25.664062 93.316406 C 25.875 92.75 26.230469 92.226562 26.722656 91.804688 C 28.277344 90.484375 30.613281 90.671875 31.9375 92.226562 Z M 175.976562 65.128906 L 175.976562 68.289062 L 185.945312 68.289062 L 185.945312 95.453125 L 189.300781 95.453125 L 189.300781 68.289062 L 199.269531 68.289062 L 199.269531 65.128906 Z M 128.5 81.722656 L 144.707031 81.722656 L 144.707031 78.601562 L 128.5 78.601562 L 128.5 68.246094 L 146.617188 68.246094 L 146.617188 65.128906 L 125.148438 65.128906 L 125.148438 95.453125 L 146.832031 95.453125 L 146.832031 92.335938 L 128.5 92.335938 Z M 116.875 89.433594 L 98.167969 65.128906 L 95.027344 65.128906 L 95.027344 95.453125 L 98.292969 95.453125 L 98.292969 70.585938 L 117.46875 95.453125 L 120.144531 95.453125 L 120.144531 65.128906 L 116.875 65.128906 Z M 86.753906 65.128906 L 90.019531 65.128906 L 90.019531 95.453125 L 87.347656 95.453125 L 68.171875 70.585938 L 68.171875 95.453125 L 64.902344 95.453125 L 64.902344 65.128906 L 68.042969 65.128906 L 86.753906 89.433594 L 86.753906 65.128906 "/></g><g style="fill:#01186c;fill-opacity:1;"><g transform="translate(9.491052, 53.611263)"><path style="stroke:none" d="M 16.390625 -17.03125 C 21.109375 -12.5 24.457031 -9.09375 26.4375 -6.8125 C 27.457031 -5.664062 27.96875 -4.695312 27.96875 -3.90625 C 27.96875 -3.125 27.347656 -2.195312 26.109375 -1.125 C 24.878906 -0.0625 23.867188 0.46875 23.078125 0.46875 C 22.285156 0.46875 21.335938 -0.179688 20.234375 -1.484375 L 10.046875 -13.109375 L 10.046875 -4.078125 C 10.046875 -3.335938 10.019531 -2.796875 9.96875 -2.453125 C 9.925781 -2.109375 9.78125 -1.707031 9.53125 -1.25 C 9.101562 -0.414062 7.898438 0 5.921875 0 C 3.765625 0 2.5 -0.585938 2.125 -1.765625 C 1.945312 -2.253906 1.859375 -3.039062 1.859375 -4.125 L 1.859375 -29.859375 C 1.859375 -30.566406 1.878906 -31.097656 1.921875 -31.453125 C 1.960938 -31.804688 2.109375 -32.21875 2.359375 -32.6875 C 2.796875 -33.519531 4 -33.9375 5.96875 -33.9375 C 8.132812 -33.9375 9.414062 -33.363281 9.8125 -32.21875 C 9.96875 -31.695312 10.046875 -30.894531 10.046875 -29.8125 L 10.046875 -20.96875 C 14.242188 -25.695312 17.640625 -29.570312 20.234375 -32.59375 C 21.316406 -33.851562 22.257812 -34.484375 23.0625 -34.484375 C 23.863281 -34.484375 24.878906 -33.953125 26.109375 -32.890625 C 27.347656 -31.828125 27.96875 -30.898438 27.96875 -30.109375 C 27.96875 -29.328125 27.503906 -28.394531 26.578125 -27.3125 C 24.785156 -25.25 22.003906 -22.410156 18.234375 -18.796875 Z M 16.390625 -17.03125 "/></g></g><g style="fill:#01186c;fill-opacity:1;"><g transform="translate(41.986491, 53.611263)"><path style="stroke:none" d="M 1.859375 -20.328125 C 1.859375 -21.035156 1.878906 -21.566406 1.921875 -21.921875 C 1.960938 -22.273438 2.09375 -22.679688 2.3125 -23.140625 C 2.75 -23.953125 3.953125 -24.359375 5.921875 -24.359375 C 7.398438 -24.359375 8.453125 -24.09375 9.078125 -23.5625 C 9.597656 -23.132812 9.875 -22.472656 9.90625 -21.578125 C 9.9375 -21.265625 9.953125 -20.816406 9.953125 -20.234375 L 9.953125 -4.03125 C 9.953125 -3.320312 9.925781 -2.785156 9.875 -2.421875 C 9.832031 -2.066406 9.6875 -1.660156 9.4375 -1.203125 C 9.039062 -0.398438 7.851562 0 5.875 0 C 3.9375 0 2.75 -0.414062 2.3125 -1.25 C 2.09375 -1.707031 1.960938 -2.109375 1.921875 -2.453125 C 1.878906 -2.796875 1.859375 -3.335938 1.859375 -4.078125 Z M 9.46875 -28.90625 C 9.238281 -28.457031 8.828125 -28.140625 8.234375 -27.953125 C 7.648438 -27.773438 6.867188 -27.6875 5.890625 -27.6875 C 4.921875 -27.6875 4.144531 -27.773438 3.5625 -27.953125 C 2.976562 -28.140625 2.566406 -28.460938 2.328125 -28.921875 C 2.097656 -29.390625 1.960938 -29.800781 1.921875 -30.15625 C 1.878906 -30.507812 1.859375 -31.039062 1.859375 -31.75 C 1.859375 -32.46875 1.878906 -33.003906 1.921875 -33.359375 C 1.960938 -33.710938 2.09375 -34.101562 2.3125 -34.53125 C 2.75 -35.363281 3.953125 -35.78125 5.921875 -35.78125 C 7.867188 -35.78125 9.039062 -35.363281 9.4375 -34.53125 C 9.6875 -34.070312 9.832031 -33.664062 9.875 -33.3125 C 9.925781 -32.957031 9.953125 -32.425781 9.953125 -31.71875 C 9.953125 -31.007812 9.925781 -30.472656 9.875 -30.109375 C 9.832031 -29.753906 9.695312 -29.351562 9.46875 -28.90625 Z M 9.46875 -28.90625 "/></g></g><g style="fill:#01186c;fill-opacity:1;"><g transform="translate(56.706945, 53.611263)"><path style="stroke:none" d="M 15.421875 -24.390625 C 18.503906 -24.390625 21.070312 -23.207031 23.125 -20.84375 C 25.175781 -18.488281 26.203125 -15.613281 26.203125 -12.21875 L 26.203125 -4.078125 C 26.203125 -3.367188 26.175781 -2.832031 26.125 -2.46875 C 26.082031 -2.113281 25.953125 -1.722656 25.734375 -1.296875 C 25.304688 -0.460938 24.101562 -0.046875 22.125 -0.046875 C 19.9375 -0.046875 18.671875 -0.617188 18.328125 -1.765625 C 18.148438 -2.285156 18.0625 -3.070312 18.0625 -4.125 L 18.0625 -12.265625 C 18.0625 -13.535156 17.695312 -14.523438 16.96875 -15.234375 C 16.238281 -15.941406 15.265625 -16.296875 14.046875 -16.296875 C 12.828125 -16.296875 11.835938 -15.925781 11.078125 -15.1875 C 10.328125 -14.445312 9.953125 -13.472656 9.953125 -12.265625 L 9.953125 -4.078125 C 9.953125 -3.367188 9.925781 -2.832031 9.875 -2.46875 C 9.832031 -2.113281 9.6875 -1.722656 9.4375 -1.296875 C 9.039062 -0.460938 7.851562 -0.046875 5.875 -0.046875 C 3.9375 -0.046875 2.75 -0.460938 2.3125 -1.296875 C 2.09375 -1.753906 1.960938 -2.160156 1.921875 -2.515625 C 1.878906 -2.878906 1.859375 -3.414062 1.859375 -4.125 L 1.859375 -20.515625 C 1.859375 -21.191406 1.878906 -21.707031 1.921875 -22.0625 C 1.960938 -22.414062 2.109375 -22.804688 2.359375 -23.234375 C 2.796875 -24.003906 3.984375 -24.390625 5.921875 -24.390625 C 7.804688 -24.390625 8.960938 -24.035156 9.390625 -23.328125 C 9.703125 -22.804688 9.859375 -22.175781 9.859375 -21.4375 C 9.984375 -21.65625 10.257812 -21.960938 10.6875 -22.359375 C 11.125 -22.765625 11.539062 -23.085938 11.9375 -23.328125 C 12.988281 -24.035156 14.148438 -24.390625 15.421875 -24.390625 Z M 15.421875 -24.390625 "/></g></g><g style="fill:#01186c;fill-opacity:1;"><g transform="translate(87.67485, 53.611263)"><path style="stroke:none" d="M 18.21875 -34.5625 C 18.445312 -35.007812 18.851562 -35.320312 19.4375 -35.5 C 20.03125 -35.6875 20.8125 -35.78125 21.78125 -35.78125 C 22.75 -35.78125 23.523438 -35.6875 24.109375 -35.5 C 24.703125 -35.320312 25.113281 -35 25.34375 -34.53125 C 25.570312 -34.070312 25.707031 -33.664062 25.75 -33.3125 C 25.800781 -32.957031 25.828125 -32.425781 25.828125 -31.71875 L 25.828125 -4.078125 C 25.828125 -3.367188 25.800781 -2.832031 25.75 -2.46875 C 25.707031 -2.113281 25.566406 -1.722656 25.328125 -1.296875 C 24.859375 -0.460938 23.550781 -0.046875 21.40625 -0.046875 C 19.257812 -0.046875 18.066406 -0.800781 17.828125 -2.3125 C 16.523438 -0.832031 14.71875 -0.09375 12.40625 -0.09375 C 9.625 -0.09375 7.09375 -1.300781 4.8125 -3.71875 C 2.53125 -6.144531 1.390625 -8.96875 1.390625 -12.1875 C 1.390625 -15.414062 2.535156 -18.25 4.828125 -20.6875 C 7.128906 -23.132812 9.65625 -24.359375 12.40625 -24.359375 C 14.6875 -24.359375 16.460938 -23.582031 17.734375 -22.03125 L 17.734375 -31.765625 C 17.734375 -32.472656 17.753906 -33.003906 17.796875 -33.359375 C 17.847656 -33.710938 17.988281 -34.113281 18.21875 -34.5625 Z M 10.6875 -9.390625 C 11.488281 -8.554688 12.460938 -8.140625 13.609375 -8.140625 C 14.753906 -8.140625 15.703125 -8.554688 16.453125 -9.390625 C 17.210938 -10.222656 17.59375 -11.140625 17.59375 -12.140625 C 17.59375 -13.148438 17.226562 -14.085938 16.5 -14.953125 C 15.78125 -15.816406 14.800781 -16.25 13.5625 -16.25 C 12.332031 -16.25 11.34375 -15.820312 10.59375 -14.96875 C 9.851562 -14.125 9.484375 -13.191406 9.484375 -12.171875 C 9.484375 -11.148438 9.882812 -10.222656 10.6875 -9.390625 Z M 10.6875 -9.390625 "/></g></g></g></svg>