<svg xmlns="http://www.w3.org/2000/svg" xmlns:xlink="http://www.w3.org/1999/xlink" width="223" zoomAndPan="magnify" viewBox="0 0 167.25 81.749997" height="109" preserveAspectRatio="xMidYMid meet" version="1.2"><defs><clipPath id="149272ec0c"><path d="M 17 57.480469 L 166.234375 57.480469 L 166.234375 81.375 L 17 81.375 Z M 17 57.480469 "/></clipPath><clipPath id="33dac58d8b"><path d="M 118.199219 16.214844 L 157 16.214844 L 157 51 L 118.199219 51 Z M 118.199219 16.214844 "/></clipPath></defs><g id="3e79329e8b"><g clip-rule="nonzero" clip-path="url(#149272ec0c)"><path style=" stroke:none;fill-rule:nonzero;fill:#ffbd59;fill-opacity:1;" d="M 145.957031 57.933594 L 145.957031 63.515625 L 152.847656 63.515625 L 152.847656 80.90625 L 159.214844 80.90625 L 159.214844 63.515625 L 166.109375 63.515625 L 166.109375 57.933594 Z M 135.308594 75.558594 C 132.09375 75.558594 129.824219 72.867188 129.824219 69.421875 L 129.824219 69.355469 C 129.824219 66.007812 132.09375 63.285156 135.308594 63.285156 C 137.503906 63.285156 139.015625 64.332031 140.328125 65.972656 L 145.121094 62.269531 C 143.085938 59.445312 140.070312 57.476562 135.371094 57.476562 C 132.328125 57.476562 129.636719 58.480469 127.5625 60.167969 C 126.472656 61.054688 125.558594 62.128906 124.855469 63.347656 L 115.382812 63.347656 L 115.382812 66.828125 L 123.535156 66.828125 C 123.351562 67.660156 123.261719 68.53125 123.261719 69.421875 L 123.261719 69.488281 C 123.261719 70.300781 123.335938 71.089844 123.480469 71.847656 L 115.382812 71.847656 L 115.382812 75.496094 L 124.808594 75.496094 C 125.554688 76.816406 126.550781 77.957031 127.726562 78.878906 C 129.75 80.457031 132.316406 81.367188 135.113281 81.367188 C 140.199219 81.367188 143.121094 79.167969 145.285156 76.183594 L 140.496094 72.769531 C 139.117188 74.441406 137.703125 75.558594 135.308594 75.558594 Z M 103.957031 70.078125 L 94.503906 57.933594 L 88.566406 57.933594 L 88.566406 80.90625 L 94.867188 80.90625 L 94.867188 68.304688 L 104.679688 80.90625 L 110.257812 80.90625 L 110.257812 57.933594 L 103.957031 57.933594 Z M 80.242188 70.078125 L 70.789062 57.933594 L 64.847656 57.933594 L 64.847656 80.90625 L 71.148438 80.90625 L 71.148438 68.304688 L 80.964844 80.90625 L 86.542969 80.90625 L 86.542969 57.933594 L 80.242188 57.933594 Z M 56.535156 69.421875 C 56.535156 66.105469 54.140625 63.21875 50.628906 63.21875 C 47.148438 63.21875 44.820312 66.039062 44.820312 69.355469 L 44.820312 69.421875 C 44.820312 72.734375 47.214844 75.625 50.691406 75.625 C 54.203125 75.625 56.535156 72.800781 56.535156 69.488281 Z M 63.035156 69.355469 L 63.035156 69.421875 C 63.035156 76.019531 57.71875 81.367188 50.628906 81.367188 C 43.539062 81.367188 38.289062 76.082031 38.289062 69.488281 L 38.289062 69.421875 C 38.289062 62.824219 43.605469 57.476562 50.691406 57.476562 C 57.78125 57.476562 63.035156 62.757812 63.035156 69.355469 Z M 34.257812 72.769531 L 39.050781 76.183594 C 36.882812 79.167969 33.960938 81.367188 28.875 81.367188 C 22.3125 81.367188 17.027344 76.347656 17.027344 69.488281 L 17.027344 69.421875 C 17.027344 62.726562 22.179688 57.476562 29.136719 57.476562 C 33.832031 57.476562 36.851562 59.445312 38.886719 62.265625 L 34.09375 65.976562 C 32.78125 64.332031 31.269531 63.285156 29.070312 63.285156 C 25.855469 63.285156 23.589844 66.007812 23.589844 69.355469 L 23.589844 69.421875 C 23.589844 72.867188 25.855469 75.558594 29.070312 75.558594 C 31.46875 75.558594 32.878906 74.441406 34.257812 72.769531 "/></g><g clip-rule="nonzero" clip-path="url(#33dac58d8b)"><path style=" stroke:none;fill-rule:nonzero;fill:#ffbd59;fill-opacity:1;" d="M 152.402344 29.328125 C 151.097656 30.152344 149.863281 31.164062 148.695312 32.359375 C 147.53125 33.554688 146.390625 34.875 145.273438 36.316406 C 144.15625 37.761719 142.972656 39.199219 141.730469 40.628906 C 142.164062 41.1875 142.664062 41.832031 143.222656 42.5625 C 143.78125 43.292969 144.480469 44.09375 145.320312 44.960938 C 146.125 45.800781 146.941406 46.484375 147.765625 47.011719 C 148.585938 47.539062 149.605469 47.804688 150.816406 47.804688 C 151.4375 47.804688 152.019531 47.679688 152.566406 47.429688 C 153.109375 47.183594 153.613281 46.871094 154.078125 46.5 C 154.546875 46.125 154.964844 45.722656 155.335938 45.285156 C 155.710938 44.851562 156.003906 44.449219 156.222656 44.074219 L 156.640625 44.261719 C 156.425781 44.882812 156.027344 45.589844 155.453125 46.382812 C 154.878906 47.175781 154.1875 47.914062 153.378906 48.59375 C 152.574219 49.277344 151.664062 49.839844 150.65625 50.273438 C 149.644531 50.707031 148.597656 50.925781 147.511719 50.925781 C 146.484375 50.925781 145.535156 50.746094 144.667969 50.390625 C 143.796875 50.03125 142.984375 49.542969 142.222656 48.921875 C 141.460938 48.300781 140.753906 47.59375 140.101562 46.800781 C 139.449219 46.007812 138.859375 45.191406 138.332031 44.355469 C 137.929688 44.945312 137.367188 45.613281 136.65625 46.359375 C 135.941406 47.105469 135.109375 47.804688 134.160156 48.457031 C 133.214844 49.109375 132.167969 49.644531 131.015625 50.0625 C 129.867188 50.484375 128.65625 50.691406 127.382812 50.691406 C 125.953125 50.691406 124.664062 50.484375 123.515625 50.0625 C 122.367188 49.644531 121.402344 49.054688 120.625 48.292969 C 119.851562 47.53125 119.25 46.636719 118.832031 45.613281 C 118.414062 44.585938 118.203125 43.515625 118.203125 42.398438 C 118.203125 41.09375 118.476562 39.890625 119.019531 38.785156 C 119.5625 37.683594 120.277344 36.691406 121.164062 35.804688 C 122.046875 34.921875 123.035156 34.128906 124.121094 33.429688 C 125.207031 32.730469 126.28125 32.117188 127.335938 31.589844 C 126.652344 30.875 126.015625 30.230469 125.425781 29.65625 C 124.835938 29.082031 124.324219 28.480469 123.890625 27.859375 C 123.453125 27.242188 123.105469 26.558594 122.839844 25.8125 C 122.578125 25.066406 122.445312 24.179688 122.445312 23.15625 C 122.445312 22.128906 122.683594 21.191406 123.167969 20.335938 C 123.648438 19.480469 124.269531 18.753906 125.03125 18.148438 C 125.792969 17.542969 126.644531 17.066406 127.59375 16.726562 C 128.539062 16.382812 129.496094 16.214844 130.457031 16.214844 C 131.296875 16.214844 132.121094 16.335938 132.925781 16.585938 C 133.734375 16.835938 134.457031 17.199219 135.09375 17.679688 C 135.730469 18.164062 136.25 18.777344 136.652344 19.523438 C 137.058594 20.265625 137.257812 21.136719 137.257812 22.128906 C 137.257812 23.125 137.042969 24.027344 136.605469 24.832031 C 136.171875 25.640625 135.667969 26.347656 135.09375 26.953125 C 134.519531 27.558594 133.933594 28.0625 133.34375 28.464844 C 132.753906 28.871094 132.304688 29.164062 131.996094 29.351562 C 132.957031 30.097656 133.839844 30.882812 134.648438 31.703125 C 135.457031 32.527344 136.25 33.375 137.027344 34.246094 C 137.894531 35.238281 138.695312 36.246094 139.425781 37.273438 C 140.15625 38.296875 140.785156 39.246094 141.3125 40.113281 C 142.027344 39.214844 142.703125 38.3125 143.339844 37.414062 C 143.976562 36.511719 144.535156 35.660156 145.015625 34.851562 C 145.5 34.042969 145.878906 33.304688 146.160156 32.636719 C 146.4375 31.96875 146.578125 31.433594 146.578125 31.03125 C 146.578125 30.347656 146.398438 29.816406 146.042969 29.445312 C 145.683594 29.074219 145.210938 28.792969 144.621094 28.605469 C 144.03125 28.417969 143.378906 28.304688 142.664062 28.257812 C 141.949219 28.210938 141.234375 28.171875 140.519531 28.140625 L 140.519531 27.582031 L 156.78125 27.210938 L 156.78125 27.769531 C 155.167969 27.988281 153.707031 28.507812 152.402344 29.328125 Z M 136.839844 41.957031 C 136.46875 41.414062 136.085938 40.882812 135.699219 40.371094 C 135.308594 39.859375 134.890625 39.332031 134.441406 38.789062 C 133.988281 38.246094 133.484375 37.628906 132.925781 36.945312 C 132.617188 36.574219 132.234375 36.15625 131.785156 35.691406 C 131.335938 35.222656 130.871094 34.765625 130.386719 34.316406 C 129.90625 33.863281 129.441406 33.4375 128.992188 33.035156 C 128.539062 32.628906 128.160156 32.289062 127.847656 32.007812 C 127.320312 32.445312 126.777344 32.957031 126.21875 33.546875 C 125.660156 34.136719 125.148438 34.789062 124.679688 35.503906 C 124.214844 36.21875 123.835938 37 123.539062 37.855469 C 123.246094 38.710938 123.097656 39.601562 123.097656 40.535156 C 123.097656 41.46875 123.253906 42.351562 123.5625 43.191406 C 123.871094 44.03125 124.324219 44.769531 124.914062 45.402344 C 125.503906 46.039062 126.203125 46.539062 127.011719 46.894531 C 127.816406 47.253906 128.703125 47.429688 129.667969 47.429688 C 130.628906 47.429688 131.484375 47.355469 132.230469 47.199219 C 132.972656 47.042969 133.664062 46.816406 134.300781 46.523438 C 134.9375 46.226562 135.550781 45.855469 136.140625 45.402344 C 136.730469 44.953125 137.355469 44.433594 138.007812 43.84375 C 137.601562 43.128906 137.214844 42.5 136.839844 41.957031 Z M 133.554688 20.941406 C 133.351562 20.242188 133.066406 19.621094 132.695312 19.078125 C 132.320312 18.535156 131.871094 18.09375 131.34375 17.75 C 130.8125 17.410156 130.238281 17.238281 129.617188 17.238281 C 129.058594 17.238281 128.578125 17.363281 128.171875 17.609375 C 127.769531 17.859375 127.441406 18.171875 127.195312 18.542969 C 126.945312 18.914062 126.757812 19.320312 126.636719 19.753906 C 126.511719 20.1875 126.449219 20.59375 126.449219 20.964844 C 126.449219 21.960938 126.542969 22.734375 126.726562 23.296875 C 126.914062 23.855469 127.242188 24.460938 127.707031 25.113281 C 128.234375 25.859375 128.800781 26.503906 129.40625 27.046875 C 130.011719 27.589844 130.734375 28.234375 131.574219 28.980469 C 132.382812 28.140625 132.964844 27.273438 133.320312 26.371094 C 133.679688 25.46875 133.855469 24.367188 133.855469 23.0625 C 133.855469 22.347656 133.753906 21.640625 133.554688 20.941406 Z M 133.554688 20.941406 "/></g><g style="fill:#ffffff;fill-opacity:1;"><g transform="translate(16.90269, 48.638672)"><path style="stroke:none" d="M 30.117188 -0.238281 C 28.988281 -0.238281 27.929688 -1.742188 27.007812 -3.378906 L 19.566406 -16.421875 L 19.972656 -16.800781 C 22.5 -19.222656 26.1875 -22.945312 28.476562 -23.253906 L 28.476562 -23.492188 L 17.140625 -23.492188 L 17.140625 -23.253906 C 20.246094 -23.183594 21.238281 -18.335938 19.085938 -16.285156 L 12.257812 -9.730469 L 12.257812 -19.359375 C 12.257812 -22.570312 12.871094 -23.253906 14.714844 -23.253906 L 15.261719 -23.253906 L 15.261719 -23.492188 L 1.09375 -23.492188 L 1.09375 -23.253906 L 1.640625 -23.253906 C 3.996094 -23.253906 4.78125 -22.570312 4.78125 -19.359375 L 4.78125 -4.132812 C 4.78125 -0.921875 3.996094 -0.238281 1.640625 -0.238281 L 1.09375 -0.238281 L 1.09375 0 L 15.261719 0 L 15.261719 -0.238281 L 14.714844 -0.238281 C 12.871094 -0.238281 12.257812 -0.921875 12.257812 -4.132812 L 12.257812 -9.390625 L 13.929688 -10.996094 L 18.128906 -3.960938 C 19.429688 -1.777344 18.027344 -0.238281 16.59375 -0.238281 L 16.59375 0 L 30.457031 0 L 30.457031 -0.238281 Z M 30.117188 -0.238281 "/></g></g><g style="fill:#ffffff;fill-opacity:1;"><g transform="translate(49.537317, 48.638672)"><path style="stroke:none" d="M 5.839844 -17.207031 C 7.921875 -17.207031 9.628906 -18.914062 9.628906 -21.03125 C 9.628906 -23.117188 7.921875 -24.824219 5.839844 -24.824219 C 3.722656 -24.824219 2.015625 -23.117188 2.015625 -21.03125 C 2.015625 -18.914062 3.722656 -17.207031 5.839844 -17.207031 Z M 11.4375 -0.238281 C 10.378906 -0.238281 9.59375 -0.648438 9.59375 -2.527344 L 9.59375 -16.527344 L 9.457031 -16.527344 C 7.785156 -14.851562 5.054688 -13.828125 0.476562 -13.691406 L 0.476562 -13.453125 C 2.183594 -13.519531 2.527344 -12.734375 2.527344 -10.550781 L 2.527344 -2.527344 C 2.527344 -0.648438 1.742188 -0.238281 0.683594 -0.238281 L 0.410156 -0.238281 L 0.410156 0 L 11.710938 0 L 11.710938 -0.238281 Z M 11.4375 -0.238281 "/></g></g><g style="fill:#ffffff;fill-opacity:1;"><g transform="translate(63.704412, 48.638672)"><path style="stroke:none" d="M 22.875 -0.238281 C 21.816406 -0.238281 21.03125 -0.648438 21.03125 -2.527344 L 21.03125 -10.378906 C 21.03125 -14.441406 18.949219 -16.320312 15.535156 -16.320312 C 12.15625 -16.320312 10.140625 -14.921875 9.59375 -12.054688 L 9.59375 -16.527344 L 9.457031 -16.527344 C 7.785156 -14.851562 5.054688 -13.828125 0.476562 -13.691406 L 0.476562 -13.453125 C 2.183594 -13.519531 2.527344 -12.734375 2.527344 -10.550781 L 2.527344 -2.527344 C 2.527344 -0.648438 1.742188 -0.238281 0.683594 -0.238281 L 0.410156 -0.238281 L 0.410156 0 L 11.371094 0 L 11.371094 -0.238281 L 11.097656 -0.238281 C 10.105469 -0.238281 9.59375 -0.648438 9.59375 -2.527344 L 9.59375 -10.277344 C 9.59375 -12.839844 10.925781 -15.195312 12.460938 -15.195312 C 13.625 -15.195312 13.964844 -14.304688 13.964844 -12.566406 L 13.964844 -2.527344 C 13.964844 -0.648438 13.453125 -0.238281 12.460938 -0.238281 L 12.191406 -0.238281 L 12.191406 0 L 23.148438 0 L 23.148438 -0.238281 Z M 22.875 -0.238281 "/></g></g><g style="fill:#ffffff;fill-opacity:1;"><g transform="translate(89.307038, 48.638672)"><path style="stroke:none" d="M 21.921875 -0.238281 C 20.863281 -0.238281 20.078125 -0.648438 20.078125 -2.527344 L 20.078125 -26.597656 L 19.941406 -26.597656 C 18.265625 -24.925781 15.535156 -23.902344 10.960938 -23.765625 L 10.960938 -23.527344 C 12.667969 -23.59375 13.007812 -22.808594 13.007812 -20.625 L 13.007812 -13.316406 C 12.632812 -15.296875 11.371094 -16.320312 8.023438 -16.320312 C 4.199219 -16.320312 0.957031 -13.863281 0.957031 -7.820312 C 0.957031 -1.84375 4.199219 0.546875 8.46875 0.546875 C 11.847656 0.546875 12.871094 -1.09375 13.113281 -3.210938 L 13.964844 0 L 22.195312 0 L 22.195312 -0.238281 Z M 10.3125 -0.0351562 C 8.5 -0.0351562 8.296875 -2.390625 8.296875 -7.886719 C 8.296875 -13.214844 8.808594 -15.636719 10.585938 -15.636719 C 12.222656 -15.636719 13.007812 -13.625 13.007812 -11.609375 L 13.007812 -4.882812 C 13.007812 -1.332031 11.609375 -0.0351562 10.3125 -0.0351562 Z M 10.3125 -0.0351562 "/></g></g></g></svg>