<svg xmlns="http://www.w3.org/2000/svg" xmlns:xlink="http://www.w3.org/1999/xlink" width="470" zoomAndPan="magnify" viewBox="0 0 352.5 191.249993" height="255" preserveAspectRatio="xMidYMid meet" version="1.2"><defs><clipPath id="f4140b1e93"><path d="M 48 110.222656 L 306 110.222656 L 306 151.546875 L 48 151.546875 Z M 48 110.222656 "/></clipPath><clipPath id="cbb00cb5ca"><path d="M 223.023438 38.84375 L 290 38.84375 L 290 99 L 223.023438 99 Z M 223.023438 38.84375 "/></clipPath></defs><g id="8fdae0703f"><g clip-rule="nonzero" clip-path="url(#f4140b1e93)"><path style=" stroke:none;fill-rule:nonzero;fill:#ffbd59;fill-opacity:1;" d="M 271.027344 111.007812 L 271.027344 120.652344 L 282.949219 120.652344 L 282.949219 150.738281 L 293.964844 150.738281 L 293.964844 120.652344 L 305.882812 120.652344 L 305.882812 111.007812 Z M 252.609375 141.484375 C 247.046875 141.484375 243.128906 136.828125 243.128906 130.871094 L 243.128906 130.761719 C 243.128906 124.96875 247.046875 120.257812 252.609375 120.257812 C 256.410156 120.257812 259.023438 122.074219 261.292969 124.910156 L 269.582031 118.5 C 266.0625 113.617188 260.84375 110.214844 252.722656 110.214844 C 247.457031 110.214844 242.800781 111.949219 239.214844 114.871094 C 237.328125 116.402344 235.75 118.261719 234.535156 120.371094 L 218.152344 120.371094 L 218.152344 126.386719 L 232.242188 126.386719 C 231.933594 127.824219 231.777344 129.332031 231.777344 130.871094 L 231.777344 130.988281 C 231.777344 132.394531 231.90625 133.761719 232.15625 135.070312 L 218.152344 135.070312 L 218.152344 141.375 L 234.453125 141.375 C 235.738281 143.664062 237.460938 145.640625 239.496094 147.226562 C 243 149.960938 247.4375 151.535156 252.273438 151.535156 C 261.066406 151.535156 266.121094 147.734375 269.863281 142.566406 L 261.582031 136.664062 C 259.199219 139.558594 256.753906 141.484375 252.609375 141.484375 Z M 198.390625 132.003906 L 182.039062 111.007812 L 171.761719 111.007812 L 171.761719 150.738281 L 182.664062 150.738281 L 182.664062 128.941406 L 199.636719 150.738281 L 209.285156 150.738281 L 209.285156 111.007812 L 198.390625 111.007812 Z M 157.367188 132.003906 L 141.015625 111.007812 L 130.742188 111.007812 L 130.742188 150.738281 L 141.640625 150.738281 L 141.640625 128.941406 L 158.613281 150.738281 L 168.261719 150.738281 L 168.261719 111.007812 L 157.367188 111.007812 Z M 116.367188 130.871094 C 116.367188 125.136719 112.222656 120.144531 106.144531 120.144531 C 100.132812 120.144531 96.101562 125.023438 96.101562 130.757812 L 96.101562 130.871094 C 96.101562 136.601562 100.246094 141.597656 106.261719 141.597656 C 112.335938 141.597656 116.367188 136.714844 116.367188 130.988281 Z M 127.605469 130.757812 L 127.605469 130.871094 C 127.605469 142.285156 118.410156 151.535156 106.144531 151.535156 C 93.882812 151.535156 84.804688 142.390625 84.804688 130.988281 L 84.804688 130.871094 C 84.804688 119.464844 93.996094 110.207031 106.261719 110.207031 C 118.523438 110.207031 127.605469 119.347656 127.605469 130.757812 Z M 77.832031 136.664062 L 86.121094 142.566406 C 82.371094 147.734375 77.320312 151.535156 68.523438 151.535156 C 57.171875 151.535156 48.03125 142.851562 48.03125 130.988281 L 48.03125 130.871094 C 48.03125 119.289062 56.941406 110.207031 68.976562 110.207031 C 77.09375 110.207031 82.320312 113.613281 85.835938 118.496094 L 77.550781 124.910156 C 75.277344 122.074219 72.667969 120.257812 68.863281 120.257812 C 63.300781 120.257812 59.382812 124.96875 59.382812 130.757812 L 59.382812 130.871094 C 59.382812 136.832031 63.300781 141.484375 68.863281 141.484375 C 73.007812 141.484375 75.449219 139.558594 77.832031 136.664062 "/></g><g clip-rule="nonzero" clip-path="url(#cbb00cb5ca)"><path style=" stroke:none;fill-rule:nonzero;fill:#ffbd59;fill-opacity:1;" d="M 282.171875 61.53125 C 279.917969 62.953125 277.785156 64.699219 275.769531 66.765625 C 273.75 68.835938 271.78125 71.117188 269.84375 73.617188 C 267.910156 76.113281 265.867188 78.601562 263.71875 81.070312 C 264.472656 82.039062 265.328125 83.15625 266.300781 84.417969 C 267.269531 85.675781 268.472656 87.0625 269.921875 88.566406 C 271.320312 90.019531 272.730469 91.203125 274.152344 92.113281 C 275.578125 93.027344 277.339844 93.480469 279.433594 93.480469 C 280.507812 93.480469 281.515625 93.269531 282.457031 92.835938 C 283.394531 92.40625 284.273438 91.871094 285.074219 91.222656 C 285.882812 90.582031 286.605469 89.882812 287.253906 89.128906 C 287.898438 88.378906 288.40625 87.679688 288.785156 87.035156 L 289.507812 87.355469 C 289.132812 88.433594 288.449219 89.652344 287.453125 91.023438 C 286.457031 92.394531 285.261719 93.667969 283.867188 94.851562 C 282.46875 96.035156 280.898438 97 279.152344 97.753906 C 277.410156 98.503906 275.59375 98.878906 273.714844 98.878906 C 271.941406 98.878906 270.296875 98.570312 268.800781 97.953125 C 267.296875 97.335938 265.886719 96.492188 264.570312 95.414062 C 263.253906 94.339844 262.03125 93.117188 260.902344 91.746094 C 259.773438 90.378906 258.75 88.96875 257.839844 87.519531 C 257.144531 88.539062 256.175781 89.691406 254.9375 90.980469 C 253.699219 92.273438 252.265625 93.480469 250.628906 94.613281 C 248.988281 95.734375 247.175781 96.664062 245.1875 97.390625 C 243.203125 98.113281 241.101562 98.476562 238.902344 98.476562 C 236.429688 98.476562 234.203125 98.113281 232.214844 97.390625 C 230.222656 96.664062 228.558594 95.644531 227.214844 94.328125 C 225.875 93.011719 224.835938 91.46875 224.113281 89.691406 C 223.390625 87.917969 223.027344 86.066406 223.027344 84.132812 C 223.027344 81.875 223.5 79.792969 224.4375 77.886719 C 225.378906 75.980469 226.613281 74.261719 228.144531 72.730469 C 229.675781 71.199219 231.378906 69.828125 233.257812 68.617188 C 235.140625 67.410156 236.996094 66.355469 238.824219 65.4375 C 237.640625 64.203125 236.535156 63.085938 235.519531 62.089844 C 234.496094 61.101562 233.613281 60.0625 232.859375 58.992188 C 232.109375 57.914062 231.503906 56.730469 231.046875 55.441406 C 230.585938 54.15625 230.363281 52.625 230.363281 50.847656 C 230.363281 49.078125 230.773438 47.453125 231.609375 45.976562 C 232.441406 44.5 233.515625 43.234375 234.832031 42.1875 C 236.152344 41.140625 237.628906 40.324219 239.265625 39.726562 C 240.90625 39.140625 242.554688 38.84375 244.21875 38.84375 C 245.671875 38.84375 247.09375 39.058594 248.492188 39.488281 C 249.890625 39.921875 251.136719 40.550781 252.238281 41.382812 C 253.335938 42.21875 254.242188 43.277344 254.9375 44.566406 C 255.632812 45.851562 255.988281 47.359375 255.988281 49.078125 C 255.988281 50.792969 255.605469 52.359375 254.859375 53.75 C 254.101562 55.148438 253.230469 56.367188 252.238281 57.417969 C 251.242188 58.46875 250.238281 59.339844 249.214844 60.035156 C 248.191406 60.738281 247.414062 61.246094 246.878906 61.566406 C 248.546875 62.855469 250.070312 64.21875 251.472656 65.636719 C 252.867188 67.058594 254.242188 68.527344 255.582031 70.03125 C 257.085938 71.75 258.472656 73.496094 259.734375 75.269531 C 260.992188 77.039062 262.082031 78.683594 262.996094 80.183594 C 264.234375 78.625 265.398438 77.066406 266.503906 75.507812 C 267.605469 73.949219 268.570312 72.472656 269.40625 71.082031 C 270.234375 69.683594 270.894531 68.402344 271.375 67.253906 C 271.863281 66.097656 272.101562 65.171875 272.101562 64.46875 C 272.101562 63.292969 271.792969 62.375 271.175781 61.726562 C 270.554688 61.085938 269.738281 60.601562 268.71875 60.277344 C 267.695312 59.957031 266.566406 59.753906 265.335938 59.675781 C 264.097656 59.589844 262.863281 59.527344 261.625 59.472656 L 261.625 58.503906 L 289.75 57.863281 L 289.75 58.832031 C 286.953125 59.207031 284.433594 60.105469 282.171875 61.53125 Z M 255.257812 83.367188 C 254.617188 82.429688 253.953125 81.515625 253.285156 80.628906 C 252.613281 79.742188 251.886719 78.828125 251.109375 77.886719 C 250.328125 76.949219 249.457031 75.890625 248.492188 74.707031 C 247.957031 74.058594 247.296875 73.335938 246.515625 72.53125 C 245.738281 71.722656 244.929688 70.929688 244.101562 70.148438 C 243.265625 69.375 242.464844 68.632812 241.679688 67.9375 C 240.90625 67.238281 240.246094 66.648438 239.710938 66.160156 C 238.796875 66.914062 237.851562 67.804688 236.890625 68.820312 C 235.921875 69.84375 235.035156 70.972656 234.230469 72.207031 C 233.425781 73.441406 232.765625 74.800781 232.253906 76.273438 C 231.746094 77.753906 231.488281 79.300781 231.488281 80.910156 C 231.488281 82.523438 231.761719 84.054688 232.296875 85.503906 C 232.832031 86.957031 233.613281 88.230469 234.628906 89.332031 C 235.652344 90.4375 236.863281 91.292969 238.261719 91.914062 C 239.65625 92.527344 241.1875 92.839844 242.855469 92.839844 C 244.519531 92.839844 245.996094 92.707031 247.28125 92.4375 C 248.570312 92.164062 249.765625 91.78125 250.867188 91.265625 C 251.972656 90.757812 253.03125 90.109375 254.054688 89.332031 C 255.070312 88.554688 256.148438 87.652344 257.277344 86.632812 C 256.578125 85.398438 255.90625 84.3125 255.265625 83.367188 Z M 249.578125 47.027344 C 249.226562 45.816406 248.734375 44.738281 248.089844 43.796875 C 247.441406 42.859375 246.664062 42.09375 245.75 41.5 C 244.835938 40.910156 243.84375 40.617188 242.769531 40.617188 C 241.800781 40.617188 240.96875 40.832031 240.269531 41.257812 C 239.570312 41.691406 239.003906 42.226562 238.574219 42.871094 C 238.148438 43.519531 237.828125 44.214844 237.605469 44.96875 C 237.394531 45.71875 237.285156 46.421875 237.285156 47.0625 C 237.285156 48.78125 237.445312 50.125 237.769531 51.09375 C 238.09375 52.058594 238.65625 53.109375 239.464844 54.238281 C 240.375 55.523438 241.359375 56.640625 242.402344 57.578125 C 243.453125 58.519531 244.699219 59.632812 246.152344 60.925781 C 247.550781 59.472656 248.554688 57.96875 249.171875 56.410156 C 249.792969 54.851562 250.101562 52.945312 250.101562 50.6875 C 250.101562 49.457031 249.925781 48.230469 249.578125 47.019531 Z M 249.578125 47.027344 "/></g><path style=" stroke:none;fill-rule:nonzero;fill:#ffffff;fill-opacity:1;" d="M 99.90625 94.515625 C 97.957031 94.515625 96.125 91.914062 94.53125 89.078125 L 81.652344 66.519531 L 82.367188 65.871094 C 86.734375 61.679688 93.109375 55.242188 97.066406 54.707031 L 97.066406 54.296875 L 77.460938 54.296875 L 77.460938 54.707031 C 82.835938 54.824219 84.550781 63.214844 80.828125 66.757812 L 69.019531 78.09375 L 69.019531 61.441406 C 69.019531 55.890625 70.078125 54.707031 73.269531 54.707031 L 74.214844 54.707031 L 74.214844 54.296875 L 49.707031 54.296875 L 49.707031 54.707031 L 50.648438 54.707031 C 54.726562 54.707031 56.082031 55.890625 56.082031 61.441406 L 56.082031 87.777344 C 56.082031 93.332031 54.726562 94.515625 50.648438 94.515625 L 49.707031 94.515625 L 49.707031 94.925781 L 74.214844 94.925781 L 74.214844 94.515625 L 73.269531 94.515625 C 70.078125 94.515625 69.019531 93.332031 69.019531 87.777344 L 69.019531 78.6875 L 71.910156 75.910156 L 79.175781 88.074219 C 81.417969 91.851562 78.996094 94.515625 76.519531 94.515625 L 76.519531 94.925781 L 100.492188 94.925781 L 100.492188 94.515625 Z M 99.90625 94.515625 "/><path style=" stroke:none;fill-rule:nonzero;fill:#ffffff;fill-opacity:1;" d="M 114.359375 65.164062 C 117.960938 65.164062 120.917969 62.207031 120.917969 58.546875 C 120.917969 54.949219 117.960938 51.992188 114.359375 51.992188 C 110.695312 51.992188 107.746094 54.949219 107.746094 58.546875 C 107.746094 62.207031 110.695312 65.164062 114.359375 65.164062 Z M 124.042969 94.515625 C 122.210938 94.515625 120.859375 93.800781 120.859375 90.558594 L 120.859375 66.339844 L 120.617188 66.339844 C 117.726562 69.238281 113 71.011719 105.085938 71.246094 L 105.085938 71.65625 C 108.039062 71.539062 108.628906 72.898438 108.628906 76.679688 L 108.628906 90.558594 C 108.628906 93.800781 107.273438 94.515625 105.445312 94.515625 L 104.96875 94.515625 L 104.96875 94.925781 L 124.515625 94.925781 L 124.515625 94.515625 Z M 124.042969 94.515625 "/><path style=" stroke:none;fill-rule:nonzero;fill:#ffffff;fill-opacity:1;" d="M 168.332031 94.515625 C 166.5 94.515625 165.144531 93.800781 165.144531 90.558594 L 165.144531 76.972656 C 165.144531 69.945312 161.542969 66.699219 155.636719 66.699219 C 149.789062 66.699219 146.304688 69.121094 145.363281 74.078125 L 145.363281 66.339844 L 145.121094 66.339844 C 142.230469 69.238281 137.503906 71.011719 129.589844 71.246094 L 129.589844 71.65625 C 132.542969 71.539062 133.132812 72.898438 133.132812 76.679688 L 133.132812 90.558594 C 133.132812 93.800781 131.777344 94.515625 129.949219 94.515625 L 129.472656 94.515625 L 129.472656 94.925781 L 148.429688 94.925781 L 148.429688 94.515625 L 147.957031 94.515625 C 146.246094 94.515625 145.363281 93.800781 145.363281 90.558594 L 145.363281 77.152344 C 145.363281 72.722656 147.664062 68.648438 150.320312 68.648438 C 152.328125 68.648438 152.917969 70.179688 152.917969 73.195312 L 152.917969 90.558594 C 152.917969 93.800781 152.03125 94.515625 150.320312 94.515625 L 149.847656 94.515625 L 149.847656 94.925781 L 168.808594 94.925781 L 168.808594 94.515625 Z M 168.332031 94.515625 "/><path style=" stroke:none;fill-rule:nonzero;fill:#ffffff;fill-opacity:1;" d="M 210.957031 94.515625 C 209.128906 94.515625 207.773438 93.800781 207.773438 90.558594 L 207.773438 48.917969 L 207.535156 48.917969 C 204.640625 51.816406 199.917969 53.589844 192.003906 53.824219 L 192.003906 54.234375 C 194.957031 54.117188 195.550781 55.476562 195.550781 59.257812 L 195.550781 71.894531 C 194.894531 68.46875 192.710938 66.699219 186.925781 66.699219 C 180.3125 66.699219 174.699219 70.953125 174.699219 81.402344 C 174.699219 91.734375 180.3125 95.867188 187.695312 95.867188 C 193.542969 95.867188 195.308594 93.035156 195.726562 89.375 L 197.199219 94.925781 L 211.433594 94.925781 L 211.433594 94.515625 Z M 190.878906 94.867188 C 187.753906 94.867188 187.394531 90.792969 187.394531 81.285156 C 187.394531 72.070312 188.285156 67.878906 191.351562 67.878906 C 194.191406 67.878906 195.550781 71.363281 195.550781 74.847656 L 195.550781 86.484375 C 195.550781 92.625 193.125 94.867188 190.878906 94.867188 Z M 190.878906 94.867188 "/><path style="fill:none;stroke-width:4;stroke-linecap:butt;stroke-linejoin:miter;stroke:#ffffff;stroke-opacity:1;stroke-miterlimit:4;" d="M -0.000745999 2.001634 L 235.19843 2.001634 " transform="matrix(1.290379,0,0,1.290379,18.629869,170.299945)"/><path style="fill:none;stroke-width:4;stroke-linecap:butt;stroke-linejoin:miter;stroke:#ffffff;stroke-opacity:1;stroke-miterlimit:4;" d="M -0.000793374 1.998959 L 42.630717 1.998959 " transform="matrix(0,1.291408,-1.291408,0,23.929128,119.680712)"/><path style="fill:none;stroke-width:4;stroke-linecap:butt;stroke-linejoin:miter;stroke:#ffffff;stroke-opacity:1;stroke-miterlimit:4;" d="M -0.00168673 1.999781 L 239.237132 1.999781 " transform="matrix(-1.290143,0,0,-1.290143,332.708761,25.455004)"/><path style="fill:none;stroke-width:4;stroke-linecap:butt;stroke-linejoin:miter;stroke:#ffffff;stroke-opacity:1;stroke-miterlimit:4;" d="M -0.00299873 2.002742 L 42.634561 2.002742 " transform="matrix(0,-1.291408,1.291408,0,327.362861,76.074252)"/></g></svg>