<svg xmlns="http://www.w3.org/2000/svg" xmlns:xlink="http://www.w3.org/1999/xlink" width="459" zoomAndPan="magnify" viewBox="0 0 344.25 180.749999" height="241" preserveAspectRatio="xMidYMid meet" version="1.2"><defs><clipPath id="b04cd3c124"><path d="M 32 108.621094 L 314 108.621094 L 314 153.785156 L 32 153.785156 Z M 32 108.621094 "/></clipPath><clipPath id="a111dc8fb7"><path d="M 223.4375 30.613281 L 296.828125 30.613281 L 296.828125 96.949219 L 223.4375 96.949219 Z M 223.4375 30.613281 "/></clipPath><clipPath id="f51c4e0885"><path d="M 0 116 L 6 116 L 6 180.429688 L 0 180.429688 Z M 0 116 "/></clipPath><clipPath id="4c1f8d4c1c"><path d="M 3 10 L 343.5 10 L 343.5 16 L 3 16 Z M 3 10 "/></clipPath><clipPath id="26529a1ac2"><path d="M 337 8 L 343.5 8 L 343.5 75 L 337 75 Z M 337 8 "/></clipPath></defs><g id="58631e1cbe"><g clip-rule="nonzero" clip-path="url(#b04cd3c124)"><path style=" stroke:none;fill-rule:nonzero;fill:#ffbd59;fill-opacity:1;" d="M 275.90625 109.476562 L 275.90625 120.023438 L 288.929688 120.023438 L 288.929688 152.902344 L 300.96875 152.902344 L 300.96875 120.023438 L 313.996094 120.023438 L 313.996094 109.476562 Z M 255.773438 142.789062 C 249.695312 142.789062 245.410156 137.699219 245.410156 131.1875 L 245.410156 131.066406 C 245.410156 124.738281 249.695312 119.589844 255.773438 119.589844 C 259.929688 119.589844 262.785156 121.570312 265.261719 124.671875 L 274.320312 117.667969 C 270.476562 112.332031 264.773438 108.609375 255.894531 108.609375 C 250.144531 108.609375 245.050781 110.507812 241.132812 113.703125 C 239.074219 115.378906 237.34375 117.40625 236.015625 119.710938 L 218.113281 119.710938 L 218.113281 126.285156 L 233.515625 126.285156 C 233.175781 127.855469 233.003906 129.503906 233.003906 131.1875 L 233.003906 131.3125 C 233.003906 132.855469 233.144531 134.34375 233.417969 135.777344 L 218.113281 135.777344 L 218.113281 142.667969 L 235.929688 142.667969 C 237.335938 145.167969 239.222656 147.328125 241.441406 149.0625 C 245.269531 152.050781 250.121094 153.769531 255.40625 153.769531 C 265.019531 153.769531 270.539062 149.617188 274.628906 143.972656 L 265.578125 137.519531 C 262.972656 140.683594 260.300781 142.789062 255.773438 142.789062 Z M 196.511719 132.429688 L 178.644531 109.476562 L 167.414062 109.476562 L 167.414062 152.902344 L 179.328125 152.902344 L 179.328125 129.078125 L 197.875 152.902344 L 208.421875 152.902344 L 208.421875 109.476562 L 196.511719 109.476562 Z M 151.679688 132.429688 L 133.8125 109.476562 L 122.582031 109.476562 L 122.582031 152.902344 L 134.496094 152.902344 L 134.496094 129.078125 L 153.046875 152.902344 L 163.589844 152.902344 L 163.589844 109.476562 L 151.679688 109.476562 Z M 106.867188 131.1875 C 106.867188 124.921875 102.339844 119.464844 95.703125 119.464844 C 89.125 119.464844 84.722656 124.796875 84.722656 131.066406 L 84.722656 131.1875 C 84.722656 137.453125 89.25 142.914062 95.824219 142.914062 C 102.464844 142.914062 106.867188 137.578125 106.867188 131.3125 Z M 119.152344 131.066406 L 119.152344 131.1875 C 119.152344 143.660156 109.101562 153.769531 95.703125 153.769531 C 82.300781 153.769531 72.375 143.78125 72.375 131.3125 L 72.375 131.1875 C 72.375 118.722656 82.425781 108.605469 95.824219 108.605469 C 109.226562 108.605469 119.152344 118.597656 119.152344 131.066406 Z M 64.757812 137.515625 L 73.816406 143.96875 C 69.71875 149.617188 64.199219 153.769531 54.582031 153.769531 C 42.175781 153.769531 32.1875 144.28125 32.1875 131.3125 L 32.1875 131.1875 C 32.1875 118.53125 41.925781 108.605469 55.078125 108.605469 C 63.949219 108.605469 69.660156 112.328125 73.503906 117.664062 L 64.445312 124.675781 C 61.964844 121.570312 59.109375 119.585938 54.957031 119.585938 C 48.875 119.585938 44.59375 124.738281 44.59375 131.066406 L 44.59375 131.1875 C 44.59375 137.703125 48.875 142.789062 54.957031 142.789062 C 59.484375 142.789062 62.152344 140.683594 64.757812 137.515625 "/></g><g clip-rule="nonzero" clip-path="url(#a111dc8fb7)"><path style=" stroke:none;fill-rule:nonzero;fill:#ffbd59;fill-opacity:1;" d="M 288.085938 55.402344 C 285.621094 56.960938 283.285156 58.867188 281.082031 61.128906 C 278.882812 63.390625 276.722656 65.882812 274.609375 68.613281 C 272.496094 71.34375 270.265625 74.0625 267.914062 76.761719 C 268.738281 77.820312 269.675781 79.039062 270.734375 80.417969 C 271.792969 81.796875 273.113281 83.308594 274.699219 84.953125 C 276.222656 86.539062 277.765625 87.832031 279.320312 88.828125 C 280.875 89.824219 282.800781 90.324219 285.089844 90.324219 C 286.265625 90.324219 287.367188 90.089844 288.394531 89.621094 C 289.421875 89.152344 290.375 88.5625 291.257812 87.859375 C 292.136719 87.152344 292.929688 86.390625 293.636719 85.566406 C 294.339844 84.746094 294.898438 83.980469 295.308594 83.277344 L 296.101562 83.632812 C 295.6875 84.804688 294.941406 86.140625 293.855469 87.636719 C 292.769531 89.136719 291.460938 90.53125 289.9375 91.820312 C 288.410156 93.113281 286.691406 94.171875 284.785156 94.992188 C 282.875 95.8125 280.894531 96.226562 278.839844 96.226562 C 276.902344 96.226562 275.109375 95.886719 273.46875 95.210938 C 271.820312 94.539062 270.28125 93.613281 268.84375 92.4375 C 267.402344 91.265625 266.070312 89.925781 264.835938 88.429688 C 263.601562 86.933594 262.488281 85.390625 261.488281 83.804688 C 260.726562 84.921875 259.667969 86.183594 258.320312 87.59375 C 256.96875 89.003906 255.398438 90.324219 253.609375 91.558594 C 251.816406 92.789062 249.835938 93.804688 247.664062 94.597656 C 245.488281 95.390625 243.199219 95.785156 240.792969 95.785156 C 238.09375 95.785156 235.652344 95.390625 233.480469 94.597656 C 231.308594 93.804688 229.488281 92.6875 228.019531 91.25 C 226.554688 89.8125 225.421875 88.121094 224.632812 86.183594 C 223.839844 84.246094 223.441406 82.21875 223.441406 80.109375 C 223.441406 77.640625 223.957031 75.367188 224.984375 73.28125 C 226.011719 71.199219 227.363281 69.316406 229.035156 67.644531 C 230.710938 65.972656 232.574219 64.472656 234.628906 63.152344 C 236.683594 61.832031 238.707031 60.671875 240.707031 59.671875 C 239.414062 58.324219 238.207031 57.105469 237.09375 56.019531 C 235.976562 54.933594 235.007812 53.800781 234.1875 52.628906 C 233.367188 51.453125 232.703125 50.164062 232.207031 48.753906 C 231.707031 47.34375 231.457031 45.671875 231.457031 43.734375 C 231.457031 41.796875 231.914062 40.019531 232.820312 38.402344 C 233.730469 36.789062 234.90625 35.410156 236.34375 34.265625 C 237.785156 33.121094 239.398438 32.226562 241.1875 31.578125 C 242.980469 30.933594 244.785156 30.609375 246.605469 30.609375 C 248.191406 30.609375 249.746094 30.84375 251.273438 31.3125 C 252.796875 31.785156 254.164062 32.476562 255.367188 33.382812 C 256.570312 34.296875 257.554688 35.453125 258.316406 36.863281 C 259.078125 38.273438 259.460938 39.917969 259.460938 41.796875 C 259.460938 43.675781 259.050781 45.378906 258.230469 46.902344 C 257.40625 48.429688 256.453125 49.765625 255.367188 50.910156 C 254.28125 52.054688 253.179688 53.011719 252.0625 53.773438 C 250.949219 54.535156 250.09375 55.09375 249.507812 55.445312 C 251.328125 56.855469 253 58.339844 254.53125 59.894531 C 256.054688 61.449219 257.554688 63.050781 259.023438 64.695312 C 260.664062 66.574219 262.179688 68.480469 263.558594 70.417969 C 264.9375 72.355469 266.125 74.148438 267.125 75.792969 C 268.476562 74.089844 269.753906 72.386719 270.957031 70.683594 C 272.160156 68.980469 273.214844 67.367188 274.128906 65.839844 C 275.035156 64.316406 275.753906 62.917969 276.285156 61.65625 C 276.8125 60.394531 277.078125 59.382812 277.078125 58.617188 C 277.078125 57.328125 276.738281 56.328125 276.0625 55.625 C 275.386719 54.917969 274.492188 54.390625 273.378906 54.035156 C 272.261719 53.683594 271.027344 53.464844 269.679688 53.378906 C 268.328125 53.289062 266.976562 53.214844 265.628906 53.15625 L 265.628906 52.101562 L 296.367188 51.394531 L 296.367188 52.453125 C 293.3125 52.863281 290.550781 53.847656 288.085938 55.402344 Z M 258.667969 79.273438 C 257.964844 78.246094 257.246094 77.246094 256.511719 76.277344 C 255.777344 75.308594 254.984375 74.308594 254.132812 73.28125 C 253.28125 72.257812 252.328125 71.09375 251.273438 69.804688 C 250.683594 69.097656 249.964844 68.304688 249.117188 67.425781 C 248.261719 66.546875 247.382812 65.679688 246.472656 64.828125 C 245.5625 63.976562 244.683594 63.167969 243.832031 62.40625 C 242.980469 61.644531 242.261719 60.996094 241.675781 60.46875 C 240.675781 61.289062 239.648438 62.257812 238.589844 63.375 C 237.535156 64.492188 236.566406 65.722656 235.683594 67.074219 C 234.804688 68.425781 234.085938 69.90625 233.527344 71.519531 C 232.96875 73.136719 232.691406 74.824219 232.691406 76.585938 C 232.691406 78.347656 232.984375 80.019531 233.570312 81.605469 C 234.15625 83.191406 235.007812 84.589844 236.125 85.789062 C 237.238281 86.992188 238.5625 87.933594 240.089844 88.609375 C 241.617188 89.285156 243.289062 89.621094 245.109375 89.621094 C 246.929688 89.621094 248.542969 89.476562 249.953125 89.183594 C 251.363281 88.886719 252.667969 88.460938 253.871094 87.90625 C 255.074219 87.347656 256.234375 86.640625 257.351562 85.789062 C 258.464844 84.941406 259.640625 83.957031 260.875 82.839844 C 260.109375 81.488281 259.375 80.300781 258.671875 79.273438 Z M 252.460938 39.550781 C 252.078125 38.226562 251.535156 37.054688 250.832031 36.027344 C 250.125 35 249.273438 34.164062 248.277344 33.515625 C 247.277344 32.871094 246.191406 32.546875 245.015625 32.546875 C 243.960938 32.546875 243.050781 32.78125 242.289062 33.25 C 241.523438 33.722656 240.90625 34.308594 240.4375 35.011719 C 239.964844 35.71875 239.613281 36.480469 239.378906 37.304688 C 239.144531 38.125 239.027344 38.890625 239.027344 39.59375 C 239.027344 41.472656 239.203125 42.941406 239.554688 43.996094 C 239.90625 45.054688 240.523438 46.199219 241.40625 47.433594 C 242.402344 48.839844 243.476562 50.0625 244.621094 51.085938 C 245.765625 52.113281 247.128906 53.332031 248.714844 54.742188 C 250.242188 53.15625 251.339844 51.511719 252.019531 49.808594 C 252.691406 48.105469 253.03125 46.023438 253.03125 43.554688 C 253.03125 42.207031 252.839844 40.871094 252.457031 39.546875 Z M 252.460938 39.550781 "/></g><g style="fill:#000000;fill-opacity:1;"><g transform="translate(31.951254, 92.173086)"><path style="stroke:none" d="M 56.929688 -0.453125 C 54.800781 -0.453125 52.800781 -3.292969 51.054688 -6.390625 L 36.984375 -31.046875 L 37.761719 -31.757812 C 42.535156 -36.339844 49.507812 -43.375 53.832031 -43.957031 L 53.832031 -44.410156 L 32.402344 -44.410156 L 32.402344 -43.957031 C 38.277344 -43.828125 40.148438 -34.660156 36.082031 -30.789062 L 23.171875 -18.394531 L 23.171875 -36.597656 C 23.171875 -42.664062 24.335938 -43.957031 27.820312 -43.957031 L 28.851562 -43.957031 L 28.851562 -44.410156 L 2.066406 -44.410156 L 2.066406 -43.957031 L 3.097656 -43.957031 C 7.550781 -43.957031 9.035156 -42.664062 9.035156 -36.597656 L 9.035156 -7.808594 C 9.035156 -1.742188 7.550781 -0.453125 3.097656 -0.453125 L 2.066406 -0.453125 L 2.066406 0 L 28.851562 0 L 28.851562 -0.453125 L 27.820312 -0.453125 C 24.335938 -0.453125 23.171875 -1.742188 23.171875 -7.808594 L 23.171875 -17.75 L 26.335938 -20.785156 L 34.273438 -7.488281 C 36.726562 -3.355469 34.082031 -0.453125 31.371094 -0.453125 L 31.371094 0 L 57.574219 0 L 57.574219 -0.453125 Z M 56.929688 -0.453125 "/></g></g><g style="fill:#000000;fill-opacity:1;"><g transform="translate(93.658179, 92.173086)"><path style="stroke:none" d="M 11.039062 -32.53125 C 14.976562 -32.53125 18.203125 -35.757812 18.203125 -39.761719 C 18.203125 -43.699219 14.976562 -46.925781 11.039062 -46.925781 C 7.035156 -46.925781 3.808594 -43.699219 3.808594 -39.761719 C 3.808594 -35.757812 7.035156 -32.53125 11.039062 -32.53125 Z M 21.625 -0.453125 C 19.621094 -0.453125 18.136719 -1.226562 18.136719 -4.777344 L 18.136719 -31.242188 L 17.878906 -31.242188 C 14.714844 -28.078125 9.554688 -26.140625 0.902344 -25.882812 L 0.902344 -25.429688 C 4.132812 -25.5625 4.777344 -24.074219 4.777344 -19.945312 L 4.777344 -4.777344 C 4.777344 -1.226562 3.292969 -0.453125 1.289062 -0.453125 L 0.773438 -0.453125 L 0.773438 0 L 22.140625 0 L 22.140625 -0.453125 Z M 21.625 -0.453125 "/></g></g><g style="fill:#000000;fill-opacity:1;"><g transform="translate(120.44522, 92.173086)"><path style="stroke:none" d="M 43.246094 -0.453125 C 41.246094 -0.453125 39.761719 -1.226562 39.761719 -4.777344 L 39.761719 -19.621094 C 39.761719 -27.304688 35.824219 -30.851562 29.367188 -30.851562 C 22.980469 -30.851562 19.171875 -28.207031 18.136719 -22.785156 L 18.136719 -31.242188 L 17.878906 -31.242188 C 14.714844 -28.078125 9.554688 -26.140625 0.902344 -25.882812 L 0.902344 -25.429688 C 4.132812 -25.5625 4.777344 -24.074219 4.777344 -19.945312 L 4.777344 -4.777344 C 4.777344 -1.226562 3.292969 -0.453125 1.289062 -0.453125 L 0.773438 -0.453125 L 0.773438 0 L 21.492188 0 L 21.492188 -0.453125 L 20.976562 -0.453125 C 19.105469 -0.453125 18.136719 -1.226562 18.136719 -4.777344 L 18.136719 -19.429688 C 18.136719 -24.269531 20.65625 -28.722656 23.558594 -28.722656 C 25.753906 -28.722656 26.398438 -27.046875 26.398438 -23.753906 L 26.398438 -4.777344 C 26.398438 -1.226562 25.429688 -0.453125 23.558594 -0.453125 L 23.042969 -0.453125 L 23.042969 0 L 43.761719 0 L 43.761719 -0.453125 Z M 43.246094 -0.453125 "/></g></g><g style="fill:#000000;fill-opacity:1;"><g transform="translate(168.855477, 92.173086)"><path style="stroke:none" d="M 41.4375 -0.453125 C 39.4375 -0.453125 37.953125 -1.226562 37.953125 -4.777344 L 37.953125 -50.28125 L 37.695312 -50.28125 C 34.53125 -47.121094 29.367188 -45.183594 20.71875 -44.925781 L 20.71875 -44.472656 C 23.945312 -44.601562 24.59375 -43.117188 24.59375 -38.984375 L 24.59375 -25.171875 C 23.882812 -28.917969 21.492188 -30.851562 15.167969 -30.851562 C 7.9375 -30.851562 1.808594 -26.207031 1.808594 -14.78125 C 1.808594 -3.484375 7.9375 1.03125 16.007812 1.03125 C 22.398438 1.03125 24.335938 -2.066406 24.785156 -6.066406 L 26.398438 0 L 41.957031 0 L 41.957031 -0.453125 Z M 19.492188 -0.0664062 C 16.070312 -0.0664062 15.683594 -4.519531 15.683594 -14.910156 C 15.683594 -24.980469 16.652344 -29.5625 20.007812 -29.5625 C 23.109375 -29.5625 24.59375 -25.753906 24.59375 -21.945312 L 24.59375 -9.230469 C 24.59375 -2.515625 21.945312 -0.0664062 19.492188 -0.0664062 Z M 19.492188 -0.0664062 "/></g></g><path style="fill:none;stroke-width:4;stroke-linecap:butt;stroke-linejoin:miter;stroke:#ffffff;stroke-opacity:1;stroke-miterlimit:4;" d="M 0.00101208 2.000154 L 235.199896 2.000154 " transform="matrix(1.410276,0,0,1.410276,0.0532602,174.280793)"/><g clip-rule="nonzero" clip-path="url(#f51c4e0885)"><path style="fill:none;stroke-width:4;stroke-linecap:butt;stroke-linejoin:miter;stroke:#ffffff;stroke-opacity:1;stroke-miterlimit:4;" d="M -0.000873443 1.999044 L 42.631854 1.999044 " transform="matrix(0,1.411401,-1.411401,0,5.844891,118.958264)"/></g><g clip-rule="nonzero" clip-path="url(#4c1f8d4c1c)"><path style="fill:none;stroke-width:4;stroke-linecap:butt;stroke-linejoin:miter;stroke:#ffffff;stroke-opacity:1;stroke-miterlimit:4;" d="M 0.000534082 2.000208 L 239.237243 2.000208 " transform="matrix(-1.410018,0,0,-1.410018,343.328878,15.984392)"/></g><g clip-rule="nonzero" clip-path="url(#26529a1ac2)"><path style="fill:none;stroke-width:4;stroke-linecap:butt;stroke-linejoin:miter;stroke:#ffffff;stroke-opacity:1;stroke-miterlimit:4;" d="M -0.00117401 1.999198 L 42.631554 1.999198 " transform="matrix(0,-1.411401,1.411401,0,337.479112,71.306937)"/></g></g></svg>